<?xml version="1.0" encoding="UTF-8" standalone="no"?>
<svg width="186px" height="60px" viewBox="0 0 186 60" version="1.1" xmlns="http://www.w3.org/2000/svg" xmlns:xlink="http://www.w3.org/1999/xlink" xmlns:sketch="http://www.bohemiancoding.com/sketch/ns">
    <!-- Generator: Sketch 3.3 (11970) - http://www.bohemiancoding.com/sketch -->
    <title>logo</title>
    <desc>Created with Sketch.</desc>
    <defs>
        <filter x="-50%" y="-50%" width="200%" height="200%" filterUnits="objectBoundingBox" id="filter-1">
            <feOffset dx="3" dy="3" in="SourceAlpha" result="shadowOffsetOuter1"></feOffset>
            <feGaussianBlur stdDeviation="0" in="shadowOffsetOuter1" result="shadowBlurOuter1"></feGaussianBlur>
            <feColorMatrix values="0 0 0 0 0   0 0 0 0 0   0 0 0 0 0  0 0 0 0.105 0" in="shadowBlurOuter1" type="matrix" result="shadowMatrixOuter1"></feColorMatrix>
            <feMerge>
                <feMergeNode in="shadowMatrixOuter1"></feMergeNode>
                <feMergeNode in="SourceGraphic"></feMergeNode>
            </feMerge>
        </filter>
    </defs>
    <g id="Page-1" stroke="none" stroke-width="1" fill="none" fill-rule="evenodd" sketch:type="MSPage">
        <path d="M22.824,18.648 L21.744,24.552 L37.44,24.552 L35.064,38.088 L19.44,38.088 L16.344,55.656 L0,55.656 L9,4.68 L41.832,4.68 L39.384,18.648 L22.824,18.648 Z M55.944,40.464 C55.8959998,40.6080007 55.872,40.775999 55.872,40.968 C55.872,41.7840041 56.0879978,42.4439975 56.52,42.948 C56.9520022,43.4520025 57.4799969,43.8599984 58.104,44.172 C58.7280031,44.4840016 59.3999964,44.6999994 60.12,44.82 C60.8400036,44.9400006 61.4879971,45 62.064,45 C63.264006,45 64.4399942,44.796002 65.592,44.388 C66.7440058,43.979998 67.7759954,43.3440043 68.688,42.48 L79.56,49.968 C77.0639875,52.5120127 74.2080161,54.287995 70.992,55.296 C67.7759839,56.304005 64.4400173,56.808 60.984,56.808 C58.2959866,56.808 55.7400121,56.4480036 53.316,55.728 C50.8919879,55.0079964 48.780009,53.9280072 46.98,52.488 C45.179991,51.0479928 43.7520053,49.2600107 42.696,47.124 C41.6399947,44.9879893 41.112,42.4800144 41.112,39.6 C41.112,36.3839839 41.6879942,33.372014 42.84,30.564 C43.9920058,27.755986 45.6119896,25.3200103 47.7,23.256 C49.7880104,21.1919897 52.2839855,19.5720059 55.188,18.396 C58.0920145,17.2199941 61.2959825,16.632 64.8,16.632 C67.5840139,16.632 70.079989,17.027996 72.288,17.82 C74.496011,18.612004 76.3679923,19.7399927 77.904,21.204 C79.4400077,22.6680073 80.6279958,24.4439896 81.468,26.532 C82.3080042,28.6200104 82.728,30.959987 82.728,33.552 C82.728,34.6080053 82.6440008,35.7599938 82.476,37.008 C82.3079992,38.2560062 82.0560017,39.4079947 81.72,40.464 L55.944,40.464 Z M68.688,31.896 C68.7360002,31.7519993 68.76,31.5960008 68.76,31.428 L68.76,31.032 C68.76,29.831994 68.3160044,28.8720036 67.428,28.152 C66.5399956,27.4319964 65.3040079,27.072 63.72,27.072 C62.711995,27.072 61.812004,27.2399983 61.02,27.576 C60.227996,27.9120017 59.5440029,28.3199976 58.968,28.8 C58.3919971,29.2800024 57.9240018,29.7959972 57.564,30.348 C57.2039982,30.9000028 56.9520007,31.4159976 56.808,31.896 L68.688,31.896 Z M125.712,48.24 C125.519999,49.1520046 125.316001,50.3279928 125.1,51.768 C124.883999,53.2080072 124.728,54.5039942 124.632,55.656 L109.08,55.656 C109.128,54.9359964 109.2,54.1080047 109.296,53.172 C109.392,52.2359953 109.488,51.4320034 109.584,50.76 L109.296,50.76 C108.191994,52.2960077 106.64401,53.6399942 104.652,54.792 C102.65999,55.9440058 100.464012,56.52 98.064,56.52 C95.9519894,56.52 94.1640073,56.2080031 92.7,55.584 C91.2359927,54.9599969 90.0360047,54.1320052 89.1,53.1 C88.1639953,52.0679948 87.492002,50.8800067 87.084,49.536 C86.675998,48.1919933 86.472,46.8000072 86.472,45.36 C86.472,44.5919962 86.5079996,43.7880042 86.58,42.948 C86.6520004,42.1079958 86.7599993,41.3040038 86.904,40.536 L90.864,17.784 L107.064,17.784 L103.536,37.872 C103.44,38.3040022 103.38,38.7479977 103.356,39.204 C103.332,39.6600023 103.32,40.0319986 103.32,40.32 C103.32,41.2800048 103.583997,42.059997 104.112,42.66 C104.640003,43.260003 105.479994,43.56 106.632,43.56 C107.736006,43.56 108.707996,43.0680049 109.548,42.084 C110.388004,41.0999951 110.975998,39.6720094 111.312,37.8 L114.912,17.784 L131.04,17.784 L125.712,48.24 Z M98.496,11.88 C97.295994,10.679994 96.696,9.31200768 96.696,7.776 C96.696,6.71999472 96.8759982,5.72400468 97.236,4.788 C97.5960018,3.85199532 98.1239965,3.0240036 98.82,2.304 C99.5160035,1.5839964 100.331995,1.02000204 101.268,0.612 C102.204005,0.20399796 103.247994,0 104.4,0 C105.360005,0 106.247996,0.16799832 107.064,0.504 C107.880004,0.84000168 108.575997,1.27199736 109.152,1.8 C109.728003,2.32800264 110.183998,2.9519964 110.52,3.672 C110.856002,4.3920036 111.024,5.13599616 111.024,5.904 C111.024,6.96000528 110.844002,7.95599532 110.484,8.892 C110.123998,9.82800468 109.608003,10.6559964 108.936,11.376 C108.263997,12.0960036 107.460005,12.659998 106.524,13.068 C105.587995,13.476002 104.544006,13.68 103.392,13.68 C101.32799,13.68 99.696006,13.080006 98.496,11.88 Z M116.568,11.88 C115.367994,10.679994 114.768,9.31200768 114.768,7.776 C114.768,6.71999472 114.947998,5.72400468 115.308,4.788 C115.668002,3.85199532 116.195997,3.0240036 116.892,2.304 C117.588003,1.5839964 118.403995,1.02000204 119.34,0.612 C120.276005,0.20399796 121.319994,0 122.472,0 C123.432005,0 124.319996,0.16799832 125.136,0.504 C125.952004,0.84000168 126.647997,1.27199736 127.224,1.8 C127.800003,2.32800264 128.255998,2.9519964 128.592,3.672 C128.928002,4.3920036 129.096,5.13599616 129.096,5.904 C129.096,6.96000528 128.916002,7.95599532 128.556,8.892 C128.195998,9.82800468 127.680003,10.6559964 127.008,11.376 C126.335997,12.0960036 125.532005,12.659998 124.596,13.068 C123.659995,13.476002 122.616006,13.68 121.464,13.68 C119.39999,13.68 117.768006,13.080006 116.568,11.88 Z M151.128,39.168 L148.32,55.656 L132.192,55.656 L141.768,1.224 L157.968,1.224 L152.352,32.256 L152.568,32.256 L163.224,17.784 L182.88,17.784 L167.328,35.784 L176.688,55.656 L157.824,55.656 L151.344,39.168 L151.128,39.168 Z" id="Feük" fill="#000000" filter="url(#filter-1)" sketch:type="MSShapeGroup"></path>
    </g>
</svg>